HIERARCHY
ROOT Hips
{
	OFFSET 0.000000 0.000000 0.000000
	CHANNELS 6 Xposition Yposition Zposition Zrotation Yrotation Xrotation 
	JOINT LHipJoint
	{
		OFFSET 0.000000 0.000000 0.000000
		CHANNELS 3 Zrotation Yrotation Xrotation
		JOINT LeftUpLeg
		{
			OFFSET 1.363060 -1.794630 0.839290
			CHANNELS 3 Zrotation Yrotation Xrotation
			JOINT LeftLeg
			{
				OFFSET 2.448110 -6.726130 0.000000
				CHANNELS 3 Zrotation Yrotation Xrotation
				JOINT LeftFoot
				{
					OFFSET 2.562200 -7.039590 0.000000
					CHANNELS 3 Zrotation Yrotation Xrotation
					JOINT LeftToeBase
					{
						OFFSET 0.157640 -0.433110 2.322550
						CHANNELS 3 Zrotation Yrotation Xrotation
						End Site
						{
							OFFSET 0.000000 0.000000 0.000000
						}
					}
				}
			}
		}
	}
	JOINT RHipJoint
	{
		OFFSET 0.000000 0.000000 0.000000
		CHANNELS 3 Zrotation Yrotation Xrotation
		JOINT RightUpLeg
		{
			OFFSET -1.305520 -1.794630 0.839290
			CHANNELS 3 Zrotation Yrotation Xrotation
			JOINT RightLeg
			{
				OFFSET -2.542530 -6.985550 0.000000
				CHANNELS 3 Zrotation Yrotation Xrotation
				JOINT RightFoot
				{
					OFFSET -2.568260 -7.056230 0.000000
					CHANNELS 3 Zrotation Yrotation Xrotation
					JOINT RightToeBase
					{
						OFFSET -0.164730 -0.452590 2.363150
						CHANNELS 3 Zrotation Yrotation Xrotation
						End Site
						{
							OFFSET 0.000000 0.000000 0.000000
						}
					}
				}
			}
		}
	}
	JOINT LowerBack
	{
		OFFSET 0.000000 0.000000 0.000000
		CHANNELS 3 Zrotation Yrotation Xrotation
		JOINT Spine
		{
			OFFSET 0.028270 2.035590 -0.193380
			CHANNELS 3 Zrotation Yrotation Xrotation
			JOINT Spine1
			{
				OFFSET 0.056720 2.048850 -0.042750
				CHANNELS 3 Zrotation Yrotation Xrotation
				JOINT Neck
				{
					OFFSET 0.000000 0.000000 0.000000
					CHANNELS 3 Zrotation Yrotation Xrotation
					JOINT Neck1
					{
						OFFSET -0.054170 1.746240 0.172020
						CHANNELS 3 Zrotation Yrotation Xrotation
						JOINT Head
						{
							OFFSET 0.104070 1.761360 -0.123970
							CHANNELS 3 Zrotation Yrotation Xrotation
							End Site
							{
								OFFSET 0.000000 0.000000 0.000000
							}
						}
					}
				}
				JOINT LeftShoulder
				{
					OFFSET 0.000000 0.000000 0.000000
					CHANNELS 3 Zrotation Yrotation Xrotation
					JOINT LeftArm
					{
						OFFSET 3.362410 1.200890 -0.311210
						CHANNELS 3 Zrotation Yrotation Xrotation
						JOINT LeftForeArm
						{
							OFFSET 4.983000 -0.000000 -0.000000
							CHANNELS 3 Zrotation Yrotation Xrotation
							JOINT LeftHand
							{
								OFFSET 3.483560 -0.000000 -0.000000
								CHANNELS 3 Zrotation Yrotation Xrotation
								JOINT LeftFingerBase
								{
									OFFSET 0.000000 0.000000 0.000000
									CHANNELS 3 Zrotation Yrotation Xrotation
									JOINT LeftHandIndex1
									{
										OFFSET 0.715260 -0.000000 -0.000000
										CHANNELS 3 Zrotation Yrotation Xrotation
										End Site
										{
											OFFSET 0.000000 0.000000 0.000000
										}
									}
								}
								JOINT LThumb
								{
									OFFSET 0.000000 0.000000 0.000000
									CHANNELS 3 Zrotation Yrotation Xrotation
									End Site
									{
										OFFSET 0.000000 0.000000 0.000000
									}
								}
							}
						}
					}
				}
				JOINT RightShoulder
				{
					OFFSET 0.000000 0.000000 0.000000
					CHANNELS 3 Zrotation Yrotation Xrotation
					JOINT RightArm
					{
						OFFSET -3.136600 1.374050 -0.404650
						CHANNELS 3 Zrotation Yrotation Xrotation
						JOINT RightForeArm
						{
							OFFSET -5.241900 -0.000000 -0.000000
							CHANNELS 3 Zrotation Yrotation Xrotation
							JOINT RightHand
							{
								OFFSET -3.444170 -0.000000 -0.000000
								CHANNELS 3 Zrotation Yrotation Xrotation
								JOINT RightFingerBase
								{
									OFFSET 0.000000 0.000000 0.000000
									CHANNELS 3 Zrotation Yrotation Xrotation
									JOINT RightHandIndex1
									{
										OFFSET -0.622530 -0.000000 -0.000000
										CHANNELS 3 Zrotation Yrotation Xrotation
										End Site
										{
											OFFSET 0.000000 0.000000 0.000000
										}
									}
								}
								JOINT RThumb
								{
									OFFSET 0.000000 0.000000 0.000000
									CHANNELS 3 Zrotation Yrotation Xrotation
									End Site
									{
										OFFSET 0.000000 0.000000 0.000000
									}
								}
							}
						}
					}
				}
			}
		}
	}
}
MOTION
Frames: 12
Frame Time: 0.008333
0.709133 17.714634 -32.059047 -3.533517 -4.225588 0.403779 -0.268244 1.300303 0.816468 -10.877475 -10.138317 -22.383080 -1.146036 4.306198 12.244691 -0.020702 5.802281 17.493876 0.479100 -4.439000 -12.315200 -2.576269 -2.791733 1.202199 28.020590 3.559938 12.206943 -3.455504 -9.893712 33.408881 1.108282 -5.945076 -0.355636 -1.158700 6.834100 -19.224700 2.237430 0.089427 4.683711 2.505116 -0.240528 -2.500036 6.089424 0.773509 -6.504094 -10.470830 1.496448 1.577135 2.151519 2.725615 13.698533 3.068100 0.434300 5.849200 -7.329885 4.190263 -2.654670 -90.331082 20.206074 3.993618 7.735383 -15.638458 -0.982535 -1.470545 -3.371875 24.039628 11.593481 24.946112 5.636600 -7.125000 0.000000 0.000000 -21.268100 57.895300 -6.918000 5.424756 -2.491288 -2.147421 71.759387 1.966057 25.781792 -17.452893 26.428717 -5.525850 1.207028 -1.009347 1.252929 -15.377218 19.185496 -5.846200 7.125000 0.000000 0.000000 7.586400 -9.240900 6.326900
0.720508 17.716039 -31.950691 -3.274020 -4.112333 0.320359 -0.250133 1.289058 0.819653 -11.310824 -10.111659 -22.320613 -1.111242 4.466235 12.766955 0.180635 4.996259 17.749312 0.478790 -4.437448 -12.310721 -2.584106 -2.786404 1.176173 27.693643 3.474067 11.995698 -3.645684 -10.140421 34.243160 1.125405 -6.057978 0.761016 -1.156305 6.827181 -19.204298 1.929703 0.159153 4.617665 2.467737 -0.174612 -2.395753 6.110591 0.785888 -6.105339 -10.523626 1.152361 0.927188 2.132014 2.331612 13.989012 3.060072 0.221014 6.134336 -7.355157 4.171410 -2.598875 -90.225702 19.576287 3.714880 7.569137 -15.286068 -0.912905 -1.509900 -3.341442 24.581982 11.612057 24.868862 5.636068 -7.125000 0.000000 0.000000 -21.173144 57.818705 -6.845929 5.416069 -2.499886 -2.168019 71.927408 2.201972 25.563100 -17.828960 26.872429 -5.747126 1.209408 -0.795784 0.711010 -15.436594 17.262829 -5.264619 7.125000 0.000000 0.000000 7.477739 -11.405651 5.904053
0.731883 17.717444 -31.842334 -3.014522 -3.999077 0.236939 -0.232021 1.277813 0.822838 -11.744173 -10.085000 -22.258145 -1.076448 4.626273 13.289219 0.381972 4.190237 18.004748 0.478479 -4.435895 -12.306241 -2.591943 -2.781075 1.150147 27.366696 3.388197 11.784454 -3.835864 -10.387131 35.077440 1.142528 -6.170880 1.877668 -1.153910 6.820262 -19.183897 1.621975 0.228880 4.551618 2.430357 -0.108695 -2.291471 6.131757 0.798268 -5.706585 -10.576423 0.808274 0.277241 2.112509 1.937608 14.279491 3.052045 0.007728 6.419471 -7.380430 4.152556 -2.543081 -90.120323 18.946500 3.436142 7.402891 -14.933678 -0.843276 -1.549256 -3.311010 25.124335 11.630632 24.791612 5.635536 -7.125000 0.000000 0.000000 -21.078187 57.742110 -6.773858 5.407382 -2.508485 -2.188617 72.095428 2.437887 25.344409 -18.205026 27.316141 -5.968402 1.211789 -0.582221 0.169092 -15.495969 15.340163 -4.683038 7.125000 0.000000 0.000000 7.369078 -13.570401 5.481206
0.742346 17.721720 -31.736815 -2.754809 -3.918440 0.099497 -0.218914 1.288071 0.857714 -12.189499 -10.011742 -22.146764 -1.034631 4.778950 13.785917 0.505208 3.629520 18.100590 0.456551 -4.331841 -12.012503 -2.597126 -2.781368 1.150670 27.013368 3.302396 11.520354 -4.048678 -10.643722 35.965262 1.160036 -6.374751 3.175681 -1.134128 6.763035 -19.015345 1.412702 0.140960 4.564630 2.405599 -0.238656 -2.381501 6.183606 0.760478 -6.046186 -10.759497 0.846863 1.028343 2.148878 1.930967 14.251942 3.101928 -0.006108 6.249910 -7.390819 4.213947 -2.558628 -90.197643 19.401136 2.642951 7.271758 -14.695303 -0.794230 -1.581896 -3.281513 25.726485 11.641906 24.661032 5.616856 -7.125000 0.000000 0.000000 -20.964423 57.611802 -6.668864 5.363466 -2.524448 -2.198165 72.152163 1.746206 25.268766 -18.338449 27.517777 -6.064871 1.185127 -0.560422 -0.121937 -15.088519 15.272840 -4.527331 7.125000 0.000000 0.000000 7.653533 -13.694803 5.681964
0.752497 17.726977 -31.632264 -2.495022 -3.848952 -0.056409 -0.207517 1.305678 0.903420 -12.638920 -9.922557 -22.018665 -0.990414 4.929112 14.273877 0.601751 3.152643 18.141886 0.427235 -4.192755 -11.619903 -2.601402 -2.783582 1.160266 26.651023 3.216620 11.238190 -4.269228 -10.903690 36.871384 1.177674 -6.609713 4.535678 -1.108405 6.688613 -18.796160 1.237076 -0.000838 4.604661 2.385155 -0.435563 -2.537942 6.245941 0.705542 -6.638137 -10.987097 1.016240 2.258286 2.204342 2.056716 14.115700 3.171605 0.048222 5.924947 -7.396122 4.302762 -2.598558 -90.337405 20.226398 1.673935 7.152625 -14.495897 -0.752219 -1.612241 -3.252335 26.349071 11.650684 24.512226 5.591975 -7.125000 0.000000 0.000000 -20.844230 57.463136 -6.552619 5.307511 -2.542928 -2.203937 72.170864 0.737500 25.242014 -18.388942 27.636677 -6.118683 1.148540 -0.604163 -0.327219 -14.521522 15.839623 -4.517174 7.125000 0.000000 0.000000 8.072344 -13.121871 6.095851
0.763027 17.732790 -31.529026 -2.253407 -3.796796 -0.178504 -0.199200 1.316244 0.927643 -13.062741 -9.821718 -21.876871 -0.944598 5.073162 14.726063 0.653365 2.856067 18.105535 0.396918 -4.042225 -11.195887 -2.611890 -2.783904 1.149981 26.317547 3.159106 10.917852 -4.499983 -11.169281 37.791884 1.193056 -6.928476 5.972841 -1.093777 6.646174 -18.671228 0.944073 -0.035568 4.656024 2.384740 -0.498428 -2.554143 6.395658 0.686545 -6.718924 -11.036133 1.057958 2.390459 2.203619 2.103621 14.072120 3.175095 0.070939 5.875084 -7.408282 4.322833 -2.584649 -90.448765 20.220985 0.918005 7.024944 -14.235871 -0.706130 -1.647479 -3.211332 27.066947 11.621047 24.349089 5.546185 -7.125000 0.000000 0.000000 -20.745295 57.285685 -6.429629 5.305940 -2.556756 -2.216372 72.158601 0.434741 24.966533 -18.436074 27.715026 -6.154382 1.131700 -0.628819 -0.546358 -14.220360 16.192262 -4.526142 7.125000 0.000000 0.000000 8.295034 -12.761617 6.325977
0.773948 17.739179 -31.427150 -2.030662 -3.762638 -0.265491 -0.194080 1.319499 0.929554 -13.459978 -9.708777 -21.720857 -0.897120 5.210867 15.141098 0.658322 2.746728 17.988550 0.365561 -3.879810 -10.739244 -2.628827 -2.782262 1.119052 26.014052 3.130943 10.557873 -4.741335 -11.440711 38.727317 1.206095 -7.334263 7.490138 -1.090672 6.636949 -18.644174 0.529176 0.040890 4.719154 2.405124 -0.422095 -2.424708 6.636116 0.704869 -6.268887 -10.899738 0.967107 1.382640 2.144546 2.068650 14.124766 3.109854 0.060827 6.110900 -7.427561 4.271514 -2.514828 -90.530630 19.352946 0.383359 6.888385 -13.912894 -0.655805 -1.687797 -3.158047 27.883780 11.551517 24.171070 5.478682 -7.125000 0.000000 0.000000 -20.668433 57.078341 -6.299635 5.360846 -2.565753 -2.235727 72.114184 0.865081 24.432758 -18.479717 27.751265 -6.171271 1.135368 -0.633656 -0.779887 -14.195258 16.322521 -4.554971 7.125000 0.000000 0.000000 8.314061 -12.622220 6.365272
0.785212 17.745633 -31.325242 -1.850152 -3.721794 -0.332583 -0.181936 1.323919 0.929868 -13.821028 -9.601156 -21.572281 -0.849364 5.343998 15.539517 0.650172 2.695448 17.859228 0.338692 -3.739539 -10.345018 -2.639022 -2.779620 1.090797 25.752125 3.115423 10.175605 -4.987619 -11.712923 39.667987 1.212406 -7.763210 9.028546 -1.045214 6.486479 -18.207674 0.284335 0.164916 4.744219 2.378652 -0.270516 -2.302370 6.653416 0.751951 -5.845761 -10.717825 0.807601 0.491942 2.129849 1.921317 14.179714 3.059414 0.001269 6.332366 -7.455536 4.223976 -2.449925 -90.403835 18.533482 0.055747 6.749656 -13.597678 -0.606299 -1.725880 -3.106325 28.679920 11.489996 24.001281 5.416347 -7.125000 0.000000 0.000000 -20.591196 56.880998 -6.174913 5.399199 -2.574209 -2.249598 72.215447 1.204092 23.713477 -18.519997 27.787506 -6.187710 1.134745 -0.646799 -0.945555 -14.139319 16.515037 -4.590264 7.125000 0.000000 0.000000 8.357502 -12.415909 6.436022
0.797584 17.752295 -31.223230 -1.806482 -3.659282 -0.335221 -0.147033 1.332109 0.925010 -14.064834 -9.510772 -21.447806 -0.800706 5.462310 15.884101 0.599555 2.832278 17.689938 0.326362 -3.671016 -10.153020 -2.627377 -2.773741 1.071206 25.624885 3.140866 9.721120 -5.249880 -11.987665 40.625627 1.196917 -8.267196 10.635353 -0.862531 5.878377 -16.444570 0.590475 0.443066 4.645952 2.200367 0.124864 -2.203020 5.947679 0.892210 -5.509831 -10.388434 0.425651 -0.019288 2.258932 1.409937 14.242121 3.056931 -0.218492 6.507332 -7.511680 4.188693 -2.400952 -89.600980 17.871404 0.398930 6.603899 -13.307604 -0.559440 -1.756720 -3.059663 29.409019 11.454423 23.858161 5.370754 -7.125000 0.000000 0.000000 -20.512738 56.716055 -6.067272 5.383918 -2.580913 -2.245701 72.788714 1.247194 22.393158 -18.549386 27.823760 -6.202687 1.120219 -0.686849 -0.891357 -13.983468 16.909268 -4.646501 7.125000 0.000000 0.000000 8.480045 -11.992796 6.608682
0.809957 17.758957 -31.121218 -1.762813 -3.596770 -0.337859 -0.112131 1.340298 0.920152 -14.308639 -9.420387 -21.323332 -0.752048 5.580622 16.228684 0.548938 2.969107 17.520647 0.314033 -3.602493 -9.961023 -2.615732 -2.767861 1.051616 25.497645 3.166310 9.266634 -5.512141 -12.262408 41.583267 1.181428 -8.771182 12.242161 -0.679847 5.270274 -14.681466 0.896615 0.721215 4.547685 2.022082 0.520244 -2.103671 5.241943 1.032469 -5.173900 -10.059044 0.043701 -0.530517 2.388015 0.898556 14.304528 3.054447 -0.438254 6.682299 -7.567825 4.153409 -2.351979 -88.798124 17.209325 0.742113 6.458141 -13.017531 -0.512582 -1.787561 -3.013000 30.138117 11.418849 23.715041 5.325160 -7.125000 0.000000 0.000000 -20.434280 56.551112 -5.959631 5.368636 -2.587617 -2.241804 73.361982 1.290296 21.072840 -18.578774 27.860013 -6.217665 1.105692 -0.726899 -0.837159 -13.827618 17.303499 -4.702739 7.125000 0.000000 0.000000 8.602588 -11.569683 6.781342
0.823662 17.770243 -31.020495 -1.707628 -3.559111 -0.274552 -0.037109 1.339431 0.879705 -14.607136 -9.341343 -21.191331 -0.703992 5.690295 16.556917 0.498205 3.080973 17.287022 0.312103 -3.591366 -9.929899 -2.570393 -2.751835 1.012509 25.346777 3.320026 8.736715 -5.788100 -12.544272 42.567857 1.124268 -9.241697 13.721347 -0.474840 4.263925 -11.843203 1.548567 1.470945 4.538215 1.592328 1.566730 -1.781736 3.609406 1.460044 -4.054044 -8.944884 -0.910146 -2.933589 2.553328 -0.419352 14.607295 2.854885 -0.967361 7.447150 -7.667925 3.980875 -2.252678 -86.936211 15.091535 2.768955 6.275858 -12.611906 -0.449164 -1.829480 -2.985133 30.684905 11.435549 23.895387 5.372514 -7.125000 0.000000 0.000000 -20.516783 56.723103 -6.072174 5.384504 -2.562616 -2.214120 74.707614 2.265841 18.000513 -18.655361 27.905363 -6.249461 1.047340 -0.805098 -0.557180 -13.338696 17.974814 -4.696403 7.125000 0.000000 0.000000 8.975340 -10.871079 7.219921
0.837393 17.781618 -30.919797 -1.652221 -3.521929 -0.209976 0.038683 1.338390 0.838575 -14.906685 -9.262516 -21.059185 -0.655947 5.799802 16.884835 0.447470 3.192359 17.052160 0.310373 -3.581342 -9.901869 -2.524405 -2.735614 0.973027 25.195455 3.476209 8.205345 -6.064322 -12.826273 43.552965 1.066307 -9.711569 15.198079 -0.269404 3.249917 -8.984263 2.207169 2.229744 4.530453 1.157738 2.625738 -1.455521 1.959046 1.893144 -2.919111 -7.815632 -1.874991 -5.373042 2.719338 -1.752769 14.914685 2.651534 -1.502417 8.223345 -7.768870 3.805701 -2.152408 -85.053932 12.945751 4.828175 6.092872 -12.204060 -0.385427 -1.871611 -2.957626 31.228187 11.453255 24.081952 5.421656 -7.125000 0.000000 0.000000 -20.602382 56.901573 -6.188951 5.400971 -2.537006 -2.185978 76.068099 3.259319 14.894495 -18.732855 27.950889 -6.281580 0.988146 -0.884031 -0.272860 -12.843370 18.651458 -4.688863 7.125000 0.000000 0.000000 9.352904 -10.167177 7.663613
